squats_1_grf
version=1
nRows=34
nColumns=19
inDegrees=no
endheader
time	ground_force_left_vx	ground_force_left_vy	ground_force_left_vz	ground_force_left_px	ground_force_left_py	ground_force_left_pz	ground_force_left_mx	ground_force_left_my	ground_force_left_mz	ground_force_right_vx	ground_force_right_vy	ground_force_right_vz	ground_force_right_px	ground_force_right_py	ground_force_right_pz	ground_force_right_mx	ground_force_right_my	ground_force_right_mz
     22.05000000	     -4.74868181	    328.91596443	     46.32245118	     -2.29880881	      0.01004940	      2.25644823	      0.01089838	     -5.55837379	      0.01389937	     -3.16394944	    324.26091188	    -42.81629750	     -2.28171460	      0.01041709	      2.71804316	     -0.00604502	      4.89801533	      0.01463591
     22.05100000	     -4.80486837	    329.09993858	     46.28251483	     -2.29870303	      0.01004962	      2.25645235	      0.01095053	     -5.58497114	      0.01396588	     -3.22882003	    324.68747217	    -42.70571276	     -2.28161965	      0.01041727	      2.71802199	     -0.00607016	      4.91838041	      0.01469676
     22.05200000	     -4.86264349	    329.29545051	     46.24116989	     -2.29859784	      0.01004984	      2.25645769	      0.01100336	     -5.61191147	      0.01403324	     -3.30184052	    325.12173329	    -42.59493014	     -2.28152392	      0.01041746	      2.71800011	     -0.00609481	      4.93835643	      0.01475645
     22.05300000	     -4.92205017	    329.50226347	     46.19811216	     -2.29849318	      0.01005006	      2.25646425	      0.01105681	     -5.63917372	      0.01410142	     -3.38275470	    325.56394194	    -42.48434255	     -2.28142752	      0.01041764	      2.71797754	     -0.00611896	      4.95792215	      0.01481492
     22.05400000	     -4.98311390	    329.72000011	     46.15299327	     -2.29838900	      0.01005029	      2.25647206	      0.01111085	     -5.66673489	      0.01417034	     -3.47124898	    326.01431402	    -42.37434091	     -2.28133056	      0.01041783	      2.71795431	     -0.00614257	      4.97705826	      0.01487210
     22.05500000	     -5.04584342	    329.94816106	     46.10542562	     -2.29828525	      0.01005051	      2.25648113	      0.01116543	     -5.69457064	      0.01423994	     -3.56695558	    326.47302036	    -42.26530612	     -2.28123319	      0.01041802	      2.71793046	     -0.00616564	      4.99574762	      0.01492794
     22.05600000	     -5.11023194	    330.18614496	     46.05498799	     -2.29818186	      0.01005074	      2.25649149	      0.01122050	     -5.72265589	      0.01431017	     -3.66945641	    326.94017383	    -42.15760123	     -2.28113556	      0.01041822	      2.71790602	     -0.00618814	      5.01397544	      0.01498241
     22.05700000	     -5.17625867	    330.43326976	     46.00123146	     -2.29807881	      0.01005097	      2.25650315	      0.01127600	     -5.75096547	      0.01438096	     -3.77828773	    327.41581825	    -42.05156401	     -2.28103784	      0.01041841	      2.71788103	     -0.00621005	      5.03172952	      0.01503546
     22.05800000	     -5.24389067	    330.68879468	     45.94368586	     -2.29797604	      0.01005121	      2.25651611	      0.01133190	     -5.77947473	      0.01445225	     -3.89294551	    327.89991923	    -41.94750011	     -2.28094020	      0.01041861	      2.71785556	     -0.00623136	      5.04900046	      0.01508707
     22.05900000	     -5.31308483	    330.95194258	     45.88186653	     -2.29787354	      0.01005144	      2.25653038	      0.01138814	     -5.80816011	      0.01452399	     -4.01289138	    328.39235735	    -41.84567673	     -2.28084283	      0.01041881	      2.71782965	     -0.00625207	      5.06578177	      0.01513722
     22.06000000	     -5.38378983	    331.22192205	     45.81528134	     -2.29777130	      0.01005168	      2.25654596	      0.01144469	     -5.83699976	      0.01459610	     -4.13755901	    328.89292354	    -41.74631695	     -2.28074592	      0.01041901	      2.71780336	     -0.00627218	      5.08206999	      0.01518589
     22.06100000	     -5.45594794	    331.49794885	     45.74343800	     -2.29766930	      0.01005193	      2.25656286	      0.01150150	     -5.86597407	      0.01466856	     -4.26636072	    329.40131689	    -41.64959482	     -2.28064966	      0.01041920	      2.71777674	     -0.00629167	      5.09786473	      0.01523308
     22.06200000	     -5.52949660	    331.77926625	     45.66585124	     -2.29756757	      0.01005217	      2.25658107	      0.01155854	     -5.89506613	      0.01474130	     -4.39869413	    329.91714466	    -41.55563116	     -2.28055424	      0.01041940	      2.71774986	     -0.00631056	      5.11316867	      0.01527881
     22.06300000	     -5.60436961	    332.06516364	     45.58204998	     -2.29746613	      0.01005242	      2.25660058	      0.01161579	     -5.92426221	      0.01481431	     -4.53394869	    330.43992443	    -41.46449024	     -2.28045986	      0.01041960	      2.71772277	     -0.00632885	      5.12798745	      0.01532309
     22.06400000	     -5.68049801	    332.35499308	     45.49158415	     -2.29736504	      0.01005267	      2.25662138	      0.01167322	     -5.95355201	      0.01488756	     -4.67151190	    330.96908826	    -41.37617734	     -2.28036670	      0.01041980	      2.71769552	     -0.00634655	      5.14232955	      0.01536595
     22.06500000	     -5.75781058	    332.64818327	     45.39403112	     -2.29726435	      0.01005292	      2.25664345	      0.01173082	     -5.98292892	      0.01496102	     -4.81077516	    331.50398857	    -41.29063740	     -2.28027494	      0.01041999	      2.71766816	     -0.00636367	      5.15620616	      0.01540741
     22.06600000	     -5.83623401	    332.94425048	     45.28900170	     -2.29716414	      0.01005318	      2.25666676	      0.01178858	     -6.01239001	      0.01503469	     -4.95113904	    332.04390549	    -41.20775454	     -2.28018473	      0.01042018	      2.71764074	     -0.00638024	      5.16963090	      0.01544753
     22.06700000	     -5.91569269	    333.24280615	     45.17614551	     -2.29706452	      0.01005343	      2.25669129	      0.01184651	     -6.04193599	      0.01510857	     -5.09201803	    332.58805538	    -41.12735263	     -2.28009625	      0.01042037	      2.71761329	     -0.00639627	      5.18261963	      0.01548634
     22.06800000	     -5.99610826	    333.54356095	     45.05515579	     -2.29696557	      0.01005369	      2.25671702	      0.01190462	     -6.07157103	      0.01518268	     -5.23284473	    333.13560004	    -41.04919675	     -2.28000962	      0.01042056	      2.71758585	     -0.00641179	      5.19519015	      0.01552390
     22.06900000	     -6.07739876	    333.84632523	     44.92577340	     -2.29686743	      0.01005395	      2.25674390	      0.01196291	     -6.10130237	      0.01525702	     -5.37307331	    333.68565651	    -40.97299559	     -2.27992496	      0.01042075	      2.71755843	     -0.00642681	      5.20736192	      0.01556028
     22.07000000	     -6.15947758	    334.15100599	     44.78779015	     -2.29677021	      0.01005421	      2.25677191	      0.01202142	     -6.13113992	      0.01533163	     -5.51218250	    334.23730699	    -40.89840456	     -2.27984240	      0.01042093	      2.71753106	     -0.00644137	      5.21915574	      0.01559552
     22.07100000	     -6.24225203	    334.45760046	     44.64105126	     -2.29667404	      0.01005447	      2.25680100	      0.01208015	     -6.16109570	      0.01540654	     -5.64967799	    334.78960890	    -40.82502976	     -2.27976200	      0.01042111	      2.71750373	     -0.00645548	      5.23059348	      0.01562969
     22.07200000	     -6.32562177	    334.76618662	     44.48545705	     -2.29657907	      0.01005473	      2.25683112	      0.01213914	     -6.19118325	      0.01548178	     -5.78509422	    335.34160468	    -40.75243250	     -2.27968384	      0.01042129	      2.71747644	     -0.00646919	      5.24169780	      0.01566288
     22.07300000	     -6.40947704	    335.07691093	     44.32096384	     -2.29648541	      0.01005500	      2.25686224	      0.01219842	     -6.22141696	      0.01555738	     -5.91799583	    335.89233153	    -40.68013453	     -2.27960797	      0.01042147	      2.71744917	     -0.00648251	      5.25249189	      0.01569513
     22.07400000	     -6.49369688	    335.38997379	     44.14758393	     -2.29639322	      0.01005526	      2.25689430	      0.01225802	     -6.25181139	      0.01563339	     -6.04797862	    336.44083088	    -40.60762355	     -2.27953441	      0.01042164	      2.71742188	     -0.00649548	      5.26299929	      0.01572653
     22.07500000	     -6.57814738	    335.70561318	     43.96538489	     -2.29630261	      0.01005552	      2.25692726	      0.01231796	     -6.28238054	      0.01570983	     -6.17467009	    336.98615770	    -40.53435927	     -2.27946318	      0.01042181	      2.71739455	     -0.00650812	      5.27324362	      0.01575714
     22.07600000	     -6.66268014	    336.02408726	     43.77448805	     -2.29621372	      0.01005578	      2.25696106	      0.01237826	     -6.31313716	      0.01578674	     -6.29772975	    337.52738950	    -40.45977970	     -2.27939425	      0.01042198	      2.71736711	     -0.00652047	      5.28324851	      0.01578703
     22.07700000	     -6.74713098	    336.34565646	     43.57506642	     -2.29612664	      0.01005603	      2.25699564	      0.01243895	     -6.34409206	      0.01586415	     -6.41684901	    338.06363520	    -40.38330766	     -2.27932762	      0.01042214	      2.71733951	     -0.00653255	      5.29303745	      0.01581628
     22.07800000	     -6.83131909	    336.67056601	     43.36734194	     -2.29604150	      0.01005629	      2.25703097	      0.01250005	     -6.37525343	      0.01594207	     -6.53175092	    338.59404351	    -40.30435753	     -2.27926323	      0.01042230	      2.71731168	     -0.00654439	      5.30263374	      0.01584496
     22.07900000	     -6.91504660	    336.99902928	     43.15158239	     -2.29595836	      0.01005654	      2.25706698	      0.01256157	     -6.40662634	      0.01602052	     -6.64218959	    339.11781110	    -40.22234203	     -2.27920103	      0.01042246	      2.71728355	     -0.00655603	      5.31206043	      0.01587313
     22.08000000	     -6.99809862	    337.33121273	     42.92809788	     -2.29587732	      0.01005679	      2.25710362	      0.01262350	     -6.43821218	      0.01609950	     -6.74794955	    339.63419026	    -40.13667895	     -2.27914095	      0.01042262	      2.71725502	     -0.00656748	      5.32134032	      0.01590086
     22.08100000	     -7.08024386	    337.66722274	     42.69723692	     -2.29579843	      0.01005704	      2.25714084	      0.01268584	     -6.47000828	      0.01617901	     -6.84884491	    340.14249630	    -40.04679779	     -2.27908292	      0.01042278	      2.71722602	     -0.00657878	      5.33049598	      0.01592822
     22.08200000	     -7.16123570	    338.00709476	     42.45938242	     -2.29572173	      0.01005728	      2.25717859	      0.01274858	     -6.50200764	      0.01625903	     -6.94471849	    340.64211443	    -39.95214610	     -2.27902683	      0.01042294	      2.71719645	     -0.00658995	      5.33954971	      0.01595527
     22.08300000	     -7.24081380	    338.35078507	     42.21494729	     -2.29564724	      0.01005753	      2.25721681	      0.01281170	     -6.53419872	      0.01633953	     -7.03544100	    341.13250637	    -39.85219550	     -2.27897261	      0.01042310	      2.71716621	     -0.00660103	      5.34852357	      0.01598208
